<?xml version="1.0" encoding="UTF-8"?>
<svg id="Ebene_1" xmlns="http://www.w3.org/2000/svg" version="1.1" viewBox="0 0 522.2 187.7">
  <!-- Generator: Adobe Illustrator 29.0.0, SVG Export Plug-In . SVG Version: 2.1.0 Build 186)  -->
  <defs>
    <style>
      .st0 {
        fill: #fff;
      }
    </style>
  </defs>
  <g>
    <path class="st0" d="M-86.8,66C-150.8,1.7-247.5-20.5-333.1,9.5c-85.7,30-148.9,111-157.3,201.6-8.7,94.2,41.6,187.1,125.2,231.2,11,5.8,22.5,10.7,34.2,14.7,3.2,1.1,6.7-.6,7.8-3.8,1.1-3.2-.6-6.7-3.8-7.8-11.1-3.8-22.1-8.5-32.4-14-79.2-41.8-126.9-129.9-118.7-219.3,7.9-85.8,67.8-162.7,149.1-191.1,81.2-28.5,172.9-7.4,233.6,53.6,60.6,60.9,81.1,152.7,52.3,233.7-31.4,88.1-118.1,148.9-211.8,148.9s-.9,0-1.3,0c-9.2-31.9-8.2-59.2-2.3-84.1.1-.3.1-.3.2-.6,7.9-20.8,9.9-21.1,20.4-27.6,20.7,10.9,43.3,16.9,64,16.9s7.9-.2,11.6-.6c43.1-5,72.4-24.3,80.3-53.1,0,0,0,0,0-.1,0-.1,0-.2,0-.3,0-.4.1-.8.1-1.2,0-.1,0-.3,0-.4,0-.5-.1-1-.3-1.5h0s0,0,0,0c-.2-.5-.4-.9-.7-1.3,0-.1-.1-.2-.2-.3-.3-.4-.6-.7-.9-1,0,0,0,0-.1-.1-.4-.3-.8-.6-1.3-.8-.1,0-.2-.1-.4-.1-.2,0-.4-.2-.5-.2-.2,0-.4,0-.6-.1,0,0-.2,0-.2,0-21-2.6-41.7-3-61.5-1.1-15.8,1.5-30.7,4.5-44.5,8.9l42.4-37.2c.1-.1.2-.2.3-.4l62.4-2.7c2.3-.1,4.4-1.5,5.4-3.7.9-2.1.5-4.6-1-6.4l-52.1-60.5c-1.5-1.8-3.9-2.5-6.2-1.9-2.3.6-4,2.4-4.4,4.7l-12,61.3c-.2.1-.3.2-.5.3l-74,64.8s0,0,0,0c-1.9,1.2-3.7,2.5-5.4,3.8h0s-7.5,5-7.5,5c0,0,0,0-.1,0l-.3.2c4.1-9.8,8.5-19.4,12.9-28.8,7.9-17,15.7-33.7,21-50.9l26.1-51.3c1.3.3,2.7.4,4.1.4,5.1,0,10.5-1.8,16-5.2,7.9-5,15-13.3,20.2-23.2,0,0,0,0,0,0l17.1-33h0s0-.2,0-.2c0,0,0,0,0,0,11-21.6,8.3-45.2-6.2-52.7-3-1.6-6.7-.4-8.2,2.6,0,0,0,0,0,0,0,.1-.2.3-.3.4l-61.8,121.4c.5-25.2-6.5-52.8-26.8-84.7,4.1-5.2,5.8-12.7,4.7-21.2-1.3-9.4-5.8-19.2-12.7-27.5l-23.2-27.9c-2.2-2.6-6-3-8.6-.8-2.6,2.2-3,6-.8,8.6l23.2,27.9c5.4,6.5,9,14.3,10,21.4.4,3.1.6,6.3,0,8.5l-41.3-50.5c-2.2-2.6-6-3-8.6-.8-2.6,2.2-3,6-.8,8.6l40.8,49.7c-7.4.1-18.2-5-26.5-15l-23.2-27.9c-2.2-2.6-6-3-8.6-.8-2.6,2.2-3,6-.8,8.6l23.2,27.9c10.3,12.4,24,19.5,35.6,19.5s5.3-.4,7.8-1.2c42.5,67.6,21.6,112.8-2.4,164.2-6.3,13.6-12.7,27.3-18.1,41.7-3.5-2.5-6.6-5.4-9-8.3-1.4-1.6-2.5-3.2-3.4-4.7,2.3-12.8,9.4-24.3,13.4-36.5,9.4-29.3,19.2-59.7-2.4-96.7-5.3-9-11.4-16.7-18.4-22.8-.1,0-.2-.1-.3-.2,0,0,0,0-.1,0,0,0-.2-.1-.3-.2-.2-.2-.5-.3-.7-.4,0,0,0,0,0,0-.1,0-.2-.1-.3-.2,0,0,0,0-.1,0-.2,0-.4-.1-.7-.2,0,0,0,0,0,0,0,0-.1,0-.2,0-.3,0-.6,0-.9,0h-.1c-.6,0-1.1,0-1.7.2,0,0,0,0,0,0-.1,0-.3.1-.4.2-.4.1-.7.3-1.1.5,0,0,0,0,0,0,0,0,0,0,0,0-.3.2-.5.4-.8.6,0,0,0,0-.1.1l-.2.2c0,0-.2.2-.3.3,0,.1-.2.2-.2.3,0,0,0,0,0,.1,0,0-.1.2-.2.2-.2.2-.3.5-.4.8,0,0,0,0,0,0,0,.1-.1.2-.2.4-1.9,4.9-4.1,10-6.4,15.5-11.3,26.9-26,61.7-16.9,98.6l-39.4-34.8c5-12.2-1.1-30-15.1-42.7,0,0-.2-.2-.2-.3,0,0-.2-.1-.2-.2,0,0-.2-.2-.3-.3-.1-.1-.3-.2-.4-.3-9.8-8.2-21.7-12.6-32-11.6-6.6.6-12,3.3-15.6,7.9,0,0-.1.2-.2.3,0,0-.2.1-.2.2-9.4,11.9-3.9,33.1,12.3,47.7,0,0,.2.2.2.3,0,0,.2.1.2.2,0,0,.2.2.3.2.1.1.3.2.4.3,8.9,7.5,19.5,11.7,29.1,11.7s1.9,0,2.9-.1c4.3-.4,8-1.7,11.1-3.8l28.7,25.6c-9.4,1-20.4,4.6-31.2,11.8-16.2,10.8-29.1,28.4-34.6,47.2-.1.4-.3.8-.4,1.2,0,0,0,0,0,0,0,0,0,0,0,0,0,.1,0,.3,0,.4,0,.2,0,.5-.1.7,0,.2,0,.4,0,.6s0,.4,0,.6c0,.2,0,.4.1.6,0,.2,0,.4.1.6,0,.2.2.4.2.5,0,.1,0,.2.1.3,0,0,0,.1,0,.2,0,0,0,.1,0,.1,0,.1.2.2.2.3.1.2.2.3.3.5.1.2.3.3.4.5.1.1.2.3.4.4.2.1.4.3.6.4.1,0,.2.2.3.2,0,0,0,0,0,0,0,0,0,0,0,0,.6.3,1.1.6,1.7.8,7.9,3.8,16.6,5.8,26,5.8,19.9,0,43-8.5,68.2-25.2,2.9-1.9,10.1-6.9,12.5-8.5l.2.2c.3.5.7,1.1,1,1.8,3.9,7.9,11.8,16.4,20.6,21.9-9.6,30.4-13.4,64.1-1.6,105.3.1.4.7,2.6,1.2,4.2.1.4.2.8.4,1.1,0,.2.1.4.2.5,0,0,0,0,0,0,1,1.7,2.8,2.9,4.9,2.9h2.8c1.2,0,2.4,0,3.5,0,98.6,0,190.1-64.2,223.1-157.1C-1.3,227-22.9,130.3-86.8,66ZM-136.7,214.9l17.8,20.7h0l17.8,20.7-44.1,1.9,8.5-43.4ZM-172.6,189.6c-1.8,1.1-4.5,2.6-7.4,3.1l43.8-86.1c3.2,7,2.8,19.5-3.4,31.5l-17.1,33s0,0,0,0c-4.1,7.9-9.9,14.6-15.9,18.5ZM-163.7,349c-17.6,2-37.7-1.3-56.8-9.3,1-.1,2.1-.2,3.2-.3,10-1,19-1.1,27.8-1.2,8.9-.1,18.2-.3,28.5-1.3,12-1.1,36.3-4.4,56.2-12.8-12.2,13-32.8,21.9-58.8,24.9ZM-147.5,311.5c7.9-.8,15.9-1.1,24.1-1.1s11.9.2,18,.6c-13.6,6.6-33.6,11.6-56.8,13.8-9.9.9-18.5,1.1-27.6,1.2-5.4,0-11,.2-16.9.5,17.4-7.8,37.4-12.9,59.2-14.9ZM-246.2,335.8h0,0ZM-273.1,290.2c-2.6,8-5.2,16.2-7.2,24.6-4.9-21.1-2.2-42.7.7-65.3,2.1-16.3,4.1-33,3.1-49.6.8,1.2,1.5,2.3,2.2,3.5,18.9,32.3,10.3,58.7,1.3,86.8ZM-288.8,201.2c.9,15.1-1,30.6-3,46.8-2.6,20.3-5.2,41.2-1.9,62.1.1.7.3,1.5.4,2.2-.2-.2-.3-.5-.5-.8-.6-1-1.1-2-1.7-3-20.7-38.5-6.3-76.2,6.7-107.3ZM-374.6,257.3c-7.2.6-16.2-2.9-23.6-9.2-11.9-10.6-15.8-25.5-11.2-31.4,0,0,.1-.2.2-.3,0,0,.2-.1.2-.2,1.8-2.3,4.9-3.1,7.1-3.3,7.2-.6,16.2,2.9,23.6,9.2,11.9,10.6,15.8,25.5,11.2,31.4,0,0-.1.2-.2.3,0,0-.2.1-.2.2-1.9,2.3-4.9,3.1-7.1,3.3ZM-358,313.3c14.4-9.6,30.1-11.8,38-9,.4.1.9.3,1.5.5l11.3,10.1c-21.5-3.2-45.3,3.8-71,21-.7.5-1.4,1-2.2,1.5,5.7-9.6,13.5-18.1,22.4-24ZM-307.5,330c-20.6,13.7-48.8,27.6-72.9,21.9,3.2-2.1,6.5-4.2,9-5.9,25-16.6,47.5-22.7,67-18.2-1.2.8-2.3,1.6-3.1,2.1Z"/>
    <path class="st0" d="M30.9,34.5c0-1.7,1.4-3.3,3.3-3.3h6.8c1.7,0,3.3,1.6,3.3,3.3v106.9h50.1c1.9,0,3.3,1.6,3.3,3.3v5c0,1.7-1.4,3.3-3.3,3.3h-60.2c-1.9,0-3.3-1.6-3.3-3.3,0,0,0-115.3,0-115.3Z"/>
    <path class="st0" d="M176.5,29.4c34.8,0,62.7,28,62.7,62.8s-27.9,62.5-62.7,62.5-62.5-27.7-62.5-62.5,27.7-62.8,62.5-62.8ZM176.5,142.6c27.7,0,50.5-22.6,50.5-50.3s-22.8-50.7-50.5-50.7-50.3,23-50.3,50.7,22.6,50.3,50.3,50.3Z"/>
    <path class="st0" d="M267.7,34.5c0-1.7,1.4-3.3,3.3-3.3h45.1c20.9,0,38,16.4,38,37.1s-10.6,29.4-25.8,35.5l23.9,44.2c1.2,2.3,0,5-3,5h-8.9c-1.6,0-2.4-.9-2.8-1.6l-23.1-46.1h-33.2v44.4c0,1.7-1.6,3.3-3.3,3.3h-6.8c-1.9,0-3.3-1.6-3.3-3.3V34.5h0ZM315.3,93.8c13.4,0,25.1-11.1,25.1-25.4s-11.7-24.5-25.1-24.5h-33.8v50h33.8Z"/>
    <path class="st0" d="M378.6,148.5l52.9-117.2c.5-1,1.4-1.9,3-1.9h1.7c1.6,0,2.4.9,3,1.9l52.6,117.2c1,2.3-.4,4.5-3,4.5h-7c-1.6,0-2.6-1-3-1.9l-12.9-28.7h-61.8l-12.7,28.7c-.4.9-1.4,1.9-3,1.9h-7c-2.6,0-4-2.3-3-4.5ZM461.3,111.6c-8.5-19-16.9-38.1-25.4-57.1h-1.4l-25.4,57.1h52.2Z"/>
  </g>
  <g>
    <path class="st0" d="M-580.8,66C-644.8,1.7-741.5-20.5-827.1,9.5c-85.7,30-148.9,111-157.3,201.6-8.7,94.2,41.6,187.1,125.2,231.2,11,5.8,22.5,10.7,34.2,14.7,3.2,1.1,6.7-.6,7.8-3.8,1.1-3.2-.6-6.7-3.8-7.8-11.1-3.8-22.1-8.5-32.4-14-79.2-41.8-126.9-129.9-118.7-219.3,7.9-85.8,67.8-162.7,149.1-191.1,81.2-28.5,172.9-7.4,233.6,53.6,60.6,60.9,81.1,152.7,52.3,233.7-31.4,88.1-118.1,148.9-211.8,148.9s-.9,0-1.3,0c-9.2-31.9-8.2-59.2-2.3-84.1.1-.3.1-.3.2-.6,7.9-20.8,9.9-21.1,20.4-27.6,20.7,10.9,43.3,16.9,64,16.9s7.9-.2,11.6-.6c43.1-5,72.4-24.3,80.3-53.1,0,0,0,0,0-.1,0-.1,0-.2,0-.3,0-.4.1-.8.1-1.2,0-.1,0-.3,0-.4,0-.5-.1-1-.3-1.5h0s0,0,0,0c-.2-.5-.4-.9-.7-1.3,0-.1-.1-.2-.2-.3-.3-.4-.6-.7-.9-1,0,0,0,0-.1-.1-.4-.3-.8-.6-1.3-.8-.1,0-.2-.1-.4-.1-.2,0-.4-.2-.5-.2-.2,0-.4,0-.6-.1,0,0-.2,0-.2,0-21-2.6-41.7-3-61.5-1.1-15.8,1.5-30.7,4.5-44.5,8.9l42.4-37.2c.1-.1.2-.2.3-.4l62.4-2.7c2.3-.1,4.4-1.5,5.4-3.7.9-2.1.5-4.6-1-6.4l-52.1-60.5c-1.5-1.8-3.9-2.5-6.2-1.9-2.3.6-4,2.4-4.4,4.7l-12,61.3c-.2.1-.3.2-.5.3l-74,64.8s0,0,0,0c-1.9,1.2-3.7,2.5-5.4,3.8h0s-7.5,5-7.5,5c0,0,0,0-.1,0l-.3.2c4.1-9.8,8.5-19.4,12.9-28.8,7.9-17,15.7-33.7,21-50.9l26.1-51.3c1.3.3,2.7.4,4.1.4,5.1,0,10.5-1.8,16-5.2,7.9-5,15-13.3,20.2-23.2,0,0,0,0,0,0l17.1-33h0s0-.2,0-.2c0,0,0,0,0,0,11-21.6,8.3-45.2-6.2-52.7-3-1.6-6.7-.4-8.2,2.6,0,0,0,0,0,0,0,.1-.2.3-.3.4l-61.8,121.4c.5-25.2-6.5-52.8-26.8-84.7,4.1-5.2,5.8-12.7,4.7-21.2-1.3-9.4-5.8-19.2-12.7-27.5l-23.2-27.9c-2.2-2.6-6-3-8.6-.8-2.6,2.2-3,6-.8,8.6l23.2,27.9c5.4,6.5,9,14.3,10,21.4.4,3.1.6,6.3,0,8.5l-41.3-50.5c-2.2-2.6-6-3-8.6-.8-2.6,2.2-3,6-.8,8.6l40.8,49.7c-7.4.1-18.2-5-26.5-15l-23.2-27.9c-2.2-2.6-6-3-8.6-.8-2.6,2.2-3,6-.8,8.6l23.2,27.9c10.3,12.4,24,19.5,35.6,19.5s5.3-.4,7.8-1.2c42.5,67.6,21.6,112.8-2.4,164.2-6.3,13.6-12.7,27.3-18.1,41.7-3.5-2.5-6.6-5.4-9-8.3-1.4-1.6-2.5-3.2-3.4-4.7,2.3-12.8,9.4-24.3,13.4-36.5,9.4-29.3,19.2-59.7-2.4-96.7-5.3-9-11.4-16.7-18.4-22.8-.1,0-.2-.1-.3-.2,0,0,0,0-.1,0,0,0-.2-.1-.3-.2-.2-.2-.5-.3-.7-.4,0,0,0,0,0,0-.1,0-.2-.1-.3-.2,0,0,0,0-.1,0-.2,0-.4-.1-.7-.2,0,0,0,0,0,0,0,0-.1,0-.2,0-.3,0-.6,0-.9,0h-.1c-.6,0-1.1,0-1.7.2,0,0,0,0,0,0-.1,0-.3.1-.4.2-.4.1-.7.3-1.1.5,0,0,0,0,0,0,0,0,0,0,0,0-.3.2-.5.4-.8.6,0,0,0,0-.1.1l-.2.2c0,0-.2.2-.3.3,0,.1-.2.2-.2.3,0,0,0,0,0,.1,0,0-.1.2-.2.2-.2.2-.3.5-.4.8,0,0,0,0,0,0,0,.1-.1.2-.2.4-1.9,4.9-4.1,10-6.4,15.5-11.3,26.9-26,61.7-16.9,98.6l-39.4-34.8c5-12.2-1.1-30-15.1-42.7,0,0-.2-.2-.2-.3,0,0-.2-.1-.2-.2,0,0-.2-.2-.3-.3-.1-.1-.3-.2-.4-.3-9.8-8.2-21.7-12.6-32-11.6-6.6.6-12,3.3-15.6,7.9,0,0-.1.2-.2.3,0,0-.2.1-.2.2-9.4,11.9-3.9,33.1,12.3,47.7,0,0,.2.2.2.3,0,0,.2.1.2.2,0,0,.2.2.3.2.1.1.3.2.4.3,8.9,7.5,19.5,11.7,29.1,11.7s1.9,0,2.9-.1c4.3-.4,8-1.7,11.1-3.8l28.7,25.6c-9.4,1-20.4,4.6-31.2,11.8-16.2,10.8-29.1,28.4-34.6,47.2-.1.4-.3.8-.4,1.2,0,0,0,0,0,0,0,0,0,0,0,0,0,.1,0,.3,0,.4,0,.2,0,.5-.1.7,0,.2,0,.4,0,.6s0,.4,0,.6c0,.2,0,.4.1.6,0,.2,0,.4.1.6,0,.2.2.4.2.5,0,.1,0,.2.1.3,0,0,0,.1,0,.2,0,0,0,.1,0,.1,0,.1.2.2.2.3.1.2.2.3.3.5.1.2.3.3.4.5.1.1.2.3.4.4.2.1.4.3.6.4.1,0,.2.2.3.2,0,0,0,0,0,0,0,0,0,0,0,0,.6.3,1.1.6,1.7.8,7.9,3.8,16.6,5.8,26,5.8,19.9,0,43-8.5,68.2-25.2,2.9-1.9,10.1-6.9,12.5-8.5l.2.2c.3.5.7,1.1,1,1.8,3.9,7.9,11.8,16.4,20.6,21.9-9.6,30.4-13.4,64.1-1.6,105.3.1.4.7,2.6,1.2,4.2.1.4.2.8.4,1.1,0,.2.1.4.2.5,0,0,0,0,0,0,1,1.7,2.8,2.9,4.9,2.9h2.8c1.2,0,2.4,0,3.5,0,98.6,0,190.1-64.2,223.1-157.1,30.5-85.5,8.9-182.2-55-246.5ZM-630.7,214.9l17.8,20.7h0l17.8,20.7-44.1,1.9,8.5-43.4ZM-666.6,189.6c-1.8,1.1-4.5,2.6-7.4,3.1l43.8-86.1c3.2,7,2.8,19.5-3.4,31.5l-17.1,33s0,0,0,0c-4.1,7.9-9.9,14.6-15.9,18.5ZM-657.7,349c-17.6,2-37.7-1.3-56.8-9.3,1-.1,2.1-.2,3.2-.3,10-1,19-1.1,27.8-1.2,8.9-.1,18.2-.3,28.5-1.3,12-1.1,36.3-4.4,56.2-12.8-12.2,13-32.8,21.9-58.8,24.9ZM-641.5,311.5c7.9-.8,15.9-1.1,24.1-1.1s11.9.2,18,.6c-13.6,6.6-33.6,11.6-56.8,13.8-9.9.9-18.5,1.1-27.6,1.2-5.4,0-11,.2-16.9.5,17.4-7.8,37.4-12.9,59.2-14.9ZM-740.2,335.8h0,0ZM-767.1,290.2c-2.6,8-5.2,16.2-7.2,24.6-4.9-21.1-2.2-42.7.7-65.3,2.1-16.3,4.1-33,3.1-49.6.8,1.2,1.5,2.3,2.2,3.5,18.9,32.3,10.3,58.7,1.3,86.8ZM-782.8,201.2c.9,15.1-1,30.6-3,46.8-2.6,20.3-5.2,41.2-1.9,62.1.1.7.3,1.5.4,2.2-.2-.2-.3-.5-.5-.8-.6-1-1.1-2-1.7-3-20.7-38.5-6.3-76.2,6.7-107.3ZM-868.6,257.3c-7.2.6-16.2-2.9-23.6-9.2-11.9-10.6-15.8-25.5-11.2-31.4,0,0,.1-.2.2-.3,0,0,.2-.1.2-.2,1.8-2.3,4.9-3.1,7.1-3.3,7.2-.6,16.2,2.9,23.6,9.2,11.9,10.6,15.8,25.5,11.2,31.4,0,0-.1.2-.2.3,0,0-.2.1-.2.2-1.9,2.3-4.9,3.1-7.1,3.3ZM-852,313.3c14.4-9.6,30.1-11.8,38-9,.4.1.9.3,1.5.5l11.3,10.1c-21.5-3.2-45.3,3.8-71,21-.7.5-1.4,1-2.2,1.5,5.7-9.6,13.5-18.1,22.4-24ZM-801.5,330c-20.6,13.7-48.8,27.6-72.9,21.9,3.2-2.1,6.5-4.2,9-5.9,25-16.6,47.5-22.7,67-18.2-1.2.8-2.3,1.6-3.1,2.1Z"/>
    <path class="st0" d="M-973.3,569.2c0-1.7,1.4-3.3,3.3-3.3h6.8c1.7,0,3.3,1.6,3.3,3.3v106.9h50.1c1.9,0,3.3,1.6,3.3,3.3v5c0,1.7-1.4,3.3-3.3,3.3h-60.2c-1.9,0-3.3-1.6-3.3-3.3,0,0,0-115.3,0-115.3Z"/>
    <path class="st0" d="M-827.7,564.2c34.8,0,62.7,28,62.7,62.8s-27.9,62.5-62.7,62.5-62.5-27.7-62.5-62.5,27.7-62.8,62.5-62.8ZM-827.7,677.4c27.7,0,50.5-22.6,50.5-50.3s-22.8-50.7-50.5-50.7-50.3,23-50.3,50.7,22.6,50.3,50.3,50.3Z"/>
    <path class="st0" d="M-736.5,569.2c0-1.7,1.4-3.3,3.3-3.3h45.1c20.9,0,38,16.4,38,37.1s-10.6,29.4-25.8,35.5l23.9,44.2c1.2,2.3,0,5-3,5h-8.9c-1.6,0-2.4-.9-2.8-1.6l-23.1-46.1h-33.2v44.4c0,1.7-1.6,3.3-3.3,3.3h-6.8c-1.9,0-3.3-1.6-3.3-3.3v-115.2h0ZM-689,628.6c13.4,0,25.1-11.1,25.1-25.4s-11.7-24.5-25.1-24.5h-33.8v50h33.8Z"/>
    <path class="st0" d="M-625.6,683.3l52.9-117.2c.5-1,1.4-1.9,3-1.9h1.7c1.6,0,2.4.9,3,1.9l52.6,117.2c1,2.3-.4,4.5-3,4.5h-7c-1.6,0-2.6-1-3-1.9l-12.9-28.7h-61.8l-12.7,28.7c-.4.9-1.4,1.9-3,1.9h-7c-2.6,0-4-2.3-3-4.5ZM-542.9,646.4c-8.5-19-16.9-38.1-25.4-57.1h-1.4l-25.4,57.1h52.2Z"/>
  </g>
</svg>