<?xml version="1.0" encoding="UTF-8"?>
<svg id="Ebene_1" data-name="Ebene 1" xmlns="http://www.w3.org/2000/svg" viewBox="0 0 473.23 693.19">
  <defs>
    <style>
      .cls-1 {
        fill: #fff;
      }
    </style>
  </defs>
  <path class="cls-1" d="M404.51,69.69C340.54,5.37,243.88-16.81,158.23,13.19,72.5,43.22,9.3,124.21.97,214.74c-8.67,94.17,41.64,187.08,125.18,231.19,10.95,5.78,22.46,10.74,34.21,14.72,3.2,1.09,6.67-.63,7.75-3.82,1.09-3.2-.63-6.67-3.82-7.75-11.14-3.78-22.05-8.48-32.44-13.96C52.63,393.28,4.92,305.17,13.14,215.86,21.04,130.01,80.97,53.2,162.27,24.72c81.23-28.45,172.9-7.42,233.56,53.59,60.61,60.95,81.13,152.69,52.27,233.71-31.38,88.1-118.08,148.94-211.77,148.94-.43,0-.87-.01-1.3-.01-9.19-31.9-8.18-59.21-2.32-84.08.12-.32.11-.32.23-.63,7.9-20.83,9.95-21.07,20.44-27.62,20.67,10.91,43.28,16.86,64.03,16.86,3.96,0,7.86-.21,11.65-.65,43.14-4.95,72.42-24.31,80.32-53.1.01-.04.01-.08.02-.12.03-.11.04-.23.06-.34.08-.4.12-.8.11-1.2,0-.14,0-.27-.01-.41-.04-.51-.12-1.02-.28-1.5h0s-.01-.03-.01-.04c-.16-.47-.4-.91-.67-1.33-.07-.11-.15-.22-.23-.33-.27-.36-.57-.69-.92-.99-.04-.04-.08-.08-.12-.11-.39-.31-.82-.57-1.29-.78-.12-.06-.25-.1-.38-.15-.18-.07-.35-.16-.55-.21-.21-.06-.41-.07-.62-.1-.09-.01-.16-.06-.25-.07-21.03-2.62-41.72-2.99-61.5-1.1-15.77,1.5-30.68,4.51-44.47,8.91l42.41-37.16c.12-.11.21-.23.33-.35l62.44-2.7c2.34-.1,4.41-1.53,5.35-3.68.93-2.15.55-4.64-.98-6.41l-52.07-60.54c-1.53-1.78-3.93-2.53-6.2-1.92-2.27.6-3.99,2.44-4.44,4.73l-12.01,61.34c-.16.11-.33.21-.48.34l-73.99,64.83s-.03.04-.05.06c-1.86,1.21-3.67,2.47-5.45,3.75h0s-7.48,5.02-7.48,5.02c-.04.03-.08.06-.13.08l-.34.23c4.07-9.8,8.52-19.36,12.94-28.84,7.9-16.96,15.66-33.66,21.01-50.94l26.13-51.32c1.34.27,2.72.43,4.12.43,5.09,0,10.54-1.76,15.98-5.23,7.88-5.03,15.04-13.26,20.16-23.17,0,0,.01-.02.01-.02l17.06-32.96h0s.09-.18.09-.18c.02-.03.02-.06.04-.09,11.04-21.58,8.28-45.17-6.24-52.68-2.99-1.55-6.69-.38-8.24,2.62-.01.02-.01.04-.02.06-.09.14-.19.26-.27.41l-61.79,121.37c.53-25.25-6.54-52.79-26.75-84.73,4.1-5.23,5.82-12.71,4.68-21.21-1.27-9.44-5.77-19.23-12.67-27.55l-23.16-27.93c-2.16-2.6-6.01-2.96-8.61-.8-2.6,2.15-2.96,6.01-.8,8.61l23.16,27.93c5.38,6.49,9.01,14.28,9.96,21.38.41,3.05.56,6.27,0,8.54l-41.32-50.47c-2.16-2.6-6.01-2.96-8.61-.8-2.6,2.15-2.96,6.01-.8,8.61l40.81,49.68c-7.44.12-18.22-4.98-26.5-14.98l-23.16-27.93c-2.16-2.6-6.01-2.96-8.61-.8-2.6,2.15-2.96,6.01-.8,8.61l23.16,27.93c10.32,12.45,23.98,19.47,35.55,19.47,2.72,0,5.33-.39,7.75-1.19,42.48,67.58,21.55,112.75-2.4,164.2-6.33,13.59-12.72,27.33-18.05,41.69-3.5-2.5-6.57-5.41-9.01-8.3-1.36-1.61-2.51-3.2-3.45-4.71,2.33-12.82,9.43-24.26,13.39-36.54,9.45-29.34,19.23-59.67-2.39-96.67-5.27-9.01-11.45-16.68-18.38-22.8-.1-.09-.22-.15-.33-.23-.04-.03-.08-.06-.12-.09-.09-.07-.19-.13-.28-.2-.24-.16-.48-.29-.74-.41-.02,0-.03-.02-.05-.03-.12-.05-.22-.12-.34-.17-.04-.02-.08-.02-.12-.03-.22-.08-.45-.13-.68-.18,0,0-.03,0-.04,0-.08-.02-.15-.03-.23-.05-.29-.06-.59-.08-.89-.09h-.15c-.57,0-1.14.04-1.7.19-.02,0-.05,0-.07,0-.14.04-.26.11-.4.16-.36.13-.71.3-1.05.5-.02,0-.04.02-.07.04-.02,0-.04.03-.06.04-.26.17-.51.35-.75.56-.04.04-.09.07-.13.11l-.17.17c-.09.09-.2.16-.28.26-.09.11-.16.23-.24.34-.03.04-.06.07-.08.11-.06.08-.11.16-.17.25-.17.25-.31.51-.43.77,0,0,0,.02-.02.04-.06.12-.13.23-.18.35-1.87,4.88-4.05,10.04-6.35,15.5-11.32,26.85-26.01,61.71-16.93,98.64l-39.39-34.81c4.96-12.23-1.05-30-15.14-42.74-.09-.09-.16-.18-.25-.27-.08-.07-.16-.12-.24-.19-.1-.09-.18-.18-.28-.26-.14-.12-.29-.2-.43-.31-9.83-8.21-21.72-12.55-32.01-11.6-6.6.61-11.98,3.33-15.57,7.86-.07.09-.11.19-.18.28-.07.08-.15.14-.21.22-9.41,11.9-3.88,33.11,12.26,47.71.09.09.16.18.25.27.08.07.17.13.25.2.09.08.18.17.27.25.14.12.28.2.43.31,8.93,7.46,19.54,11.73,29.14,11.73.97,0,1.92-.04,2.86-.13,4.28-.4,8.04-1.69,11.15-3.79l28.74,25.56c-9.43,1.05-20.38,4.65-31.15,11.8-16.24,10.8-29.09,28.39-34.64,47.25-.12.41-.26.82-.37,1.23,0,.02-.01.03-.01.05-.01.03-.02.06-.03.09-.04.14-.04.29-.07.43-.05.24-.1.48-.12.72-.01.19,0,.37,0,.56,0,.21,0,.42.02.63.02.2.08.39.12.58.04.19.07.38.13.56.06.19.15.36.22.54.05.11.09.23.14.34.03.07.07.13.1.2.03.05.06.1.08.15.07.12.16.22.23.33.11.16.22.33.34.49.13.16.29.3.44.45.13.13.25.26.4.38.19.15.41.28.62.42.12.07.22.16.35.23.02.01.05.02.07.04.02.01.05.02.07.04.56.3,1.14.56,1.71.84,7.87,3.82,16.56,5.75,25.97,5.75,19.89,0,42.96-8.48,68.17-25.25,2.86-1.91,10.13-6.88,12.51-8.51l.21.19c.34.51.67,1.07.98,1.78,3.87,7.94,11.76,16.38,20.57,21.86-9.63,30.42-13.45,64.09-1.55,105.33.13.44.73,2.62,1.23,4.2.1.4.23.79.39,1.15.08.21.15.38.21.46.02.02.03.02.04.04.98,1.74,2.75,2.9,4.94,2.9h.39l2.43-.03c1.18.02,2.35.03,3.53.03,98.63,0,190.05-64.16,223.15-157.06,30.5-85.52,8.87-182.25-55.04-246.52ZM354.7,218.53l17.82,20.72h0l17.82,20.72-44.14,1.91,8.5-43.35ZM318.78,193.26c-1.78,1.14-4.53,2.59-7.41,3.1l43.82-86.06c3.22,7.02,2.77,19.46-3.44,31.48l-17.06,32.98s-.01,0-.01.02c-4.1,7.9-9.9,14.64-15.9,18.48ZM327.67,352.68c-17.65,2.03-37.7-1.34-56.84-9.29,1.04-.12,2.1-.23,3.18-.33,9.98-.95,19.03-1.1,27.77-1.24,8.93-.15,18.17-.3,28.53-1.28,12.01-1.14,36.29-4.4,56.19-12.8-12.25,13.02-32.81,21.95-58.83,24.94ZM343.9,315.11c7.89-.75,15.94-1.13,24.1-1.13,5.94,0,11.94.2,17.99.6-13.62,6.64-33.59,11.56-56.84,13.78-9.88.94-18.48,1.08-27.57,1.23-5.44.09-11,.18-16.86.46,17.38-7.78,37.38-12.86,59.18-14.94ZM245.18,339.47h0,0ZM218.27,293.84c-2.58,8.01-5.19,16.19-7.24,24.64-4.85-21.15-2.18-42.71.66-65.33,2.05-16.32,4.14-33.03,3.05-49.58.75,1.16,1.51,2.3,2.23,3.52,18.86,32.28,10.33,58.74,1.3,86.75ZM202.6,204.82c.94,15.06-1.01,30.63-3.04,46.81-2.55,20.34-5.16,41.2-1.9,62.07.12.74.27,1.47.4,2.21-.17-.25-.34-.49-.5-.76-.59-1.01-1.13-2.01-1.67-3.02-20.67-38.5-6.32-76.25,6.71-107.31ZM116.75,261c-7.22.65-16.18-2.87-23.56-9.21-11.94-10.6-15.84-25.5-11.2-31.37.07-.08.11-.18.17-.27.07-.08.16-.15.23-.23,1.84-2.33,4.88-3.07,7.11-3.28,7.15-.65,16.18,2.87,23.56,9.21,11.93,10.6,15.84,25.5,11.2,31.36-.07.09-.11.18-.17.27-.07.08-.15.14-.22.23-1.86,2.35-4.9,3.08-7.12,3.29ZM133.38,316.93c14.45-9.61,30.07-11.79,38.04-9,.41.14.95.33,1.49.5l11.32,10.07c-21.46-3.17-45.28,3.84-71.02,20.96-.68.45-1.43.95-2.21,1.46,5.71-9.59,13.54-18.11,22.38-23.99ZM183.81,333.61c-20.65,13.73-48.84,27.56-72.87,21.94,3.18-2.06,6.51-4.24,9.03-5.92,25-16.62,47.49-22.69,66.99-18.16-1.18.82-2.3,1.57-3.15,2.14Z"/>
  <path class="cls-1" d="M12.04,572.89c0-1.74,1.39-3.31,3.31-3.31h6.79c1.74,0,3.31,1.57,3.31,3.31v106.9h50.14c1.92,0,3.31,1.57,3.31,3.31v5.05c0,1.74-1.39,3.31-3.31,3.31H15.35c-1.91,0-3.31-1.57-3.31-3.31,0,0,0-115.26,0-115.26Z"/>
  <path class="cls-1" d="M157.66,567.84c34.82,0,62.67,28.03,62.67,62.85s-27.86,62.5-62.67,62.5-62.5-27.68-62.5-62.5,27.68-62.85,62.5-62.85ZM157.66,681.01c27.68,0,50.49-22.63,50.49-50.31s-22.81-50.66-50.49-50.66-50.31,22.98-50.31,50.66,22.63,50.31,50.31,50.31Z"/>
  <path class="cls-1" d="M248.85,572.89c0-1.74,1.39-3.31,3.31-3.31h45.09c20.89,0,37.95,16.37,37.95,37.08,0,16.02-10.62,29.42-25.77,35.52l23.85,44.22c1.22,2.26,0,5.05-2.96,5.05h-8.88c-1.57,0-2.44-.87-2.79-1.57l-23.15-46.14h-33.25v44.39c0,1.74-1.57,3.31-3.31,3.31h-6.79c-1.91,0-3.31-1.57-3.31-3.31v-115.24h0ZM296.38,632.26c13.41,0,25.07-11.14,25.07-25.42,0-13.23-11.67-24.55-25.07-24.55h-33.78v49.97h33.78Z"/>
  <path class="cls-1" d="M359.72,686.93l52.93-117.17c.52-1.04,1.39-1.92,2.96-1.92h1.74c1.57,0,2.44.87,2.96,1.92l52.58,117.17c1.04,2.26-.35,4.53-2.96,4.53h-6.96c-1.57,0-2.61-1.04-2.96-1.92l-12.88-28.73h-61.8l-12.71,28.73c-.35.87-1.39,1.92-2.96,1.92h-6.96c-2.63-.01-4.02-2.27-2.98-4.53ZM442.42,650.02c-8.53-18.98-16.89-38.13-25.42-57.1h-1.39l-25.42,57.1h52.23Z"/>
</svg>