<?xml version="1.0" encoding="UTF-8"?>
<svg id="Ebene_1" data-name="Ebene 1" xmlns="http://www.w3.org/2000/svg" viewBox="0 0 522.17 187.66">
  <defs>
    <style>
      .cls-1 {
        fill: #fff;
      }
    </style>
  </defs>
  <path class="cls-1" d="M30.92,34.46c0-1.74,1.39-3.31,3.31-3.31h6.79c1.74,0,3.31,1.57,3.31,3.31v106.9h50.14c1.92,0,3.31,1.57,3.31,3.31v5.05c0,1.74-1.39,3.31-3.31,3.31h-60.24c-1.91,0-3.31-1.57-3.31-3.31,0,0,0-115.26,0-115.26Z"/>
  <path class="cls-1" d="M176.54,29.41c34.82,0,62.67,28.03,62.67,62.85s-27.86,62.5-62.67,62.5-62.5-27.68-62.5-62.5,27.68-62.85,62.5-62.85ZM176.54,142.58c27.68,0,50.49-22.63,50.49-50.31s-22.81-50.66-50.49-50.66-50.31,22.98-50.31,50.66,22.63,50.31,50.31,50.31Z"/>
  <path class="cls-1" d="M267.73,34.46c0-1.74,1.39-3.31,3.31-3.31h45.09c20.89,0,37.95,16.37,37.95,37.08,0,16.02-10.62,29.42-25.77,35.52l23.85,44.22c1.22,2.26,0,5.05-2.96,5.05h-8.88c-1.57,0-2.44-.87-2.79-1.57l-23.15-46.14h-33.25v44.39c0,1.74-1.57,3.31-3.31,3.31h-6.79c-1.91,0-3.31-1.57-3.31-3.31V34.46h0ZM315.26,93.83c13.41,0,25.07-11.14,25.07-25.42,0-13.23-11.67-24.55-25.07-24.55h-33.78v49.97h33.78Z"/>
  <path class="cls-1" d="M378.6,148.5l52.93-117.17c.52-1.04,1.39-1.92,2.96-1.92h1.74c1.57,0,2.44.87,2.96,1.92l52.58,117.17c1.04,2.26-.35,4.53-2.96,4.53h-6.96c-1.57,0-2.61-1.04-2.96-1.92l-12.88-28.73h-61.8l-12.71,28.73c-.35.87-1.39,1.92-2.96,1.92h-6.96c-2.63-.01-4.02-2.27-2.98-4.53ZM461.3,111.59c-8.53-18.98-16.89-38.13-25.42-57.1h-1.39l-25.42,57.1h52.23Z"/>
</svg>